<svg width="8" height="6" viewBox="0 0 8 6" fill="none" xmlns="http://www.w3.org/2000/svg">
<path d="M4.00502 3.31865L1.27546 5.86785C1.0868 6.04405 0.781736 6.04405 0.595083 5.86785L0.141495 5.44424C-0.0471651 5.26804 -0.0471651 4.98313 0.141495 4.80881L2.07627 3.00187L0.141495 1.19494C-0.0471651 1.01874 -0.0471651 0.733833 0.141495 0.559513L0.593076 0.132146C0.781736 -0.0440487 1.0868 -0.0440487 1.27346 0.132146L4.00301 2.68135C4.19368 2.85754 4.19368 3.14246 4.00502 3.31865ZM7.8585 2.68135L5.12895 0.132146C4.94029 -0.0440487 4.63522 -0.0440487 4.44857 0.132146L3.99498 0.555764C3.80632 0.731959 3.80632 1.01687 3.99498 1.19119L5.92975 2.99813L3.99498 4.80506C3.80632 4.98126 3.80632 5.26617 3.99498 5.44049L4.44857 5.8641C4.63723 6.0403 4.9423 6.0403 5.12895 5.8641L7.8585 3.3149C8.04716 3.14246 8.04716 2.85754 7.8585 2.68135Z" fill="white"/>
</svg>
