<svg width="8" height="6" viewBox="0 0 8 6" fill="none" xmlns="http://www.w3.org/2000/svg">
<path d="M3.99498 3.31865L6.72454 5.86785C6.9132 6.04405 7.21826 6.04405 7.40492 5.86785L7.8585 5.44424C8.04717 5.26804 8.04717 4.98313 7.8585 4.80881L5.92373 3.00187L7.8585 1.19494C8.04717 1.01874 8.04717 0.733833 7.8585 0.559513L7.40692 0.132146C7.21826 -0.0440487 6.9132 -0.0440487 6.72654 0.132146L3.99699 2.68135C3.80632 2.85754 3.80632 3.14246 3.99498 3.31865ZM0.141496 2.68135L2.87105 0.132146C3.05971 -0.0440487 3.36478 -0.0440487 3.55143 0.132146L4.00502 0.555764C4.19368 0.731959 4.19368 1.01687 4.00502 1.19119L2.07025 2.99813L4.00502 4.80506C4.19368 4.98126 4.19368 5.26617 4.00502 5.44049L3.55143 5.8641C3.36277 6.0403 3.0577 6.0403 2.87105 5.8641L0.141496 3.3149C-0.0471649 3.14246 -0.0471649 2.85754 0.141496 2.68135Z" fill="white"/>
</svg>
