<svg width="24" height="24" viewBox="0 0 24 24" fill="none" xmlns="http://www.w3.org/2000/svg">
<path d="M15.1 7.2C15.1 8.91208 13.7121 10.3 12 10.3C10.2879 10.3 8.90001 8.91208 8.90001 7.2C8.90001 5.48792 10.2879 4.1 12 4.1C13.7121 4.1 15.1 5.48792 15.1 7.2ZM21.1 9.6C21.1 10.6493 20.2493 11.5 19.2 11.5C18.1507 11.5 17.3 10.6493 17.3 9.6C17.3 8.55066 18.1507 7.7 19.2 7.7C20.2493 7.7 21.1 8.55066 21.1 9.6ZM12 13.7C14.3748 13.7 16.3 15.6252 16.3 18V21.1H7.70001V18C7.70001 15.6252 9.62518 13.7 12 13.7ZM6.70001 9.6C6.70001 10.6493 5.84935 11.5 4.80001 11.5C3.75067 11.5 2.90001 10.6493 2.90001 9.6C2.90001 8.55066 3.75067 7.7 4.80001 7.7C5.84935 7.7 6.70001 8.55066 6.70001 9.6ZM19.7 21.1V18C19.7 16.8992 19.4687 15.8514 19.0519 14.9035C19.101 14.9012 19.1503 14.9 19.2 14.9C20.9121 14.9 22.3 16.2879 22.3 18V21.1H19.7ZM4.30001 18V21.1H1.70001V18C1.70001 16.2879 3.08793 14.9 4.80001 14.9C4.84968 14.9 4.89905 14.9012 4.9481 14.9035C4.53129 15.8514 4.30001 16.8992 4.30001 18Z" stroke="#9CA3AF"/>
</svg>
