<svg width="24" height="24" viewBox="0 0 24 24" fill="none" xmlns="http://www.w3.org/2000/svg">
<path d="M5.86293 16.3859L5.66188 16.8237L5.97644 17.1886C7.43319 18.8784 9.59186 19.95 12 19.95C14.4081 19.95 16.5667 18.8784 18.0234 17.1887L18.338 16.8238L18.137 16.386C17.071 14.0646 14.7248 12.45 11.9999 12.45C9.2751 12.45 6.92894 14.0645 5.86293 16.3859ZM20.85 12C20.85 16.8877 16.8877 20.85 12 20.85C7.1123 20.85 3.15002 16.8877 3.15002 12C3.15002 7.11227 7.1123 3.14999 12 3.14999C16.8877 3.14999 20.85 7.11227 20.85 12ZM12 11.55C13.7397 11.55 15.15 10.1397 15.15 8.39999C15.15 6.6603 13.7397 5.24999 12 5.24999C10.2603 5.24999 8.85001 6.6603 8.85001 8.39999C8.85001 10.1397 10.2603 11.55 12 11.55Z" stroke="#9CA3AF" stroke-width="1.5"/>
</svg>
