<svg width="32" height="32" fill="none" xmlns="http://www.w3.org/2000/svg"><path d="M.5 4A3.5 3.5 0 014 .5h27.5v31H4A3.5 3.5 0 01.5 28V4z" fill="#F9FAFB" stroke="#D1D5DB"/><path d="M22.5 10h-1v-.75a1.25 1.25 0 00-2.5 0V10h-6v-.75a1.25 1.25 0 00-2.5 0V10h-1A1.5 1.5 0 008 11.5v11A1.5 1.5 0 009.5 24h13a1.5 1.5 0 001.5-1.5v-11a1.5 1.5 0 00-1.5-1.5zM22 22H10v-8.5h12V22zm-10.5-5.5v-1a.5.5 0 01.5-.5h1a.5.5 0 01.5.5v1a.5.5 0 01-.5.5h-1a.5.5 0 01-.5-.5zm3.5 0v-1a.5.5 0 01.5-.5h1a.5.5 0 01.5.5v1a.5.5 0 01-.5.5h-1a.5.5 0 01-.5-.5zm3.5 0v-1a.5.5 0 01.5-.5h1a.5.5 0 01.5.5v1a.5.5 0 01-.5.5h-1a.5.5 0 01-.5-.5zm-7 3.5v-1a.5.5 0 01.5-.5h1a.5.5 0 01.5.5v1a.5.5 0 01-.5.5h-1a.5.5 0 01-.5-.5zm3.5 0v-1a.5.5 0 01.5-.5h1a.5.5 0 01.5.5v1a.5.5 0 01-.5.5h-1a.5.5 0 01-.5-.5z" fill="#9CA3AF"/></svg>