<svg width="24" height="24" fill="none" xmlns="http://www.w3.org/2000/svg"><path d="M14.032 9.492a.75.75 0 101.133-.984l-1.133.984zm-4.064 5.016a.75.75 0 00-1.133.984l1.133-.984zM12.75 7a.75.75 0 00-1.5 0h1.5zm-1.5 10a.75.75 0 001.5 0h-1.5zm9-5A8.25 8.25 0 0112 20.25v1.5A9.75 9.75 0 0021.75 12h-1.5zM12 20.25A8.25 8.25 0 013.75 12h-1.5A9.75 9.75 0 0012 21.75v-1.5zM3.75 12A8.25 8.25 0 0112 3.75v-1.5A9.75 9.75 0 002.25 12h1.5zM12 3.75A8.25 8.25 0 0120.25 12h1.5A9.75 9.75 0 0012 2.25v1.5zm0 7.5c-.701 0-1.302-.19-1.705-.46-.41-.272-.545-.566-.545-.79h-1.5c0 .881.536 1.587 1.213 2.038.682.455 1.581.712 2.537.712v-1.5zM9.75 10c0-.223.136-.518.545-.79.403-.27 1.004-.46 1.705-.46v-1.5c-.956 0-1.855.257-2.537.712C8.786 8.413 8.25 9.119 8.25 10h1.5zM12 8.75c.955 0 1.692.35 2.032.742l1.133-.984c-.697-.803-1.9-1.258-3.165-1.258v1.5zm0 4c.701 0 1.302.19 1.705.46.41.272.545.566.545.79h1.5c0-.881-.536-1.587-1.213-2.038-.682-.455-1.581-.712-2.537-.712v1.5zM11.25 7v1h1.5V7h-1.5zm0 9v1h1.5v-1h-1.5zm.75-.75c-.955 0-1.692-.35-2.032-.742l-1.133.984c.697.803 1.9 1.258 3.165 1.258v-1.5zM14.25 14c0 .223-.136.518-.545.79-.403.27-1.004.46-1.705.46v1.5c.956 0 1.855-.257 2.537-.712.677-.451 1.213-1.157 1.213-2.038h-1.5zm-3-6v8h1.5V8h-1.5z" fill="#9CA3AF"/></svg>